name Visual3d_SIMM_grf.mot
datacolumns 19
datarows 48
range 1.200000 1.670000
endheader
time	ground_force_vx	ground_force_vy	ground_force_vz	ground_force_px	ground_force_py	ground_force_pz	l_ground_force_vx	l_ground_force_vy	l_ground_force_vz	l_ground_force_px	l_ground_force_py	l_ground_force_pz	ground_torque_x	ground_torque_y	ground_torque_z	l_ground_torque_x	l_ground_torque_y	l_ground_torque_z
1.200000	0.000000	0.000000	0.000000	0.000000	0.000000	0.000000	6.769269	153.326950	18.196463	0.253059	-0.000903	0.120977	0.000000	0.000000	0.000000	0.000958	0.182844	-0.003356
1.210000	0.000000	0.000000	0.000000	0.000000	0.000000	0.000000	8.596739	174.857208	21.332792	0.252894	-0.002000	0.118974	0.000000	0.000000	0.000000	0.001202	0.229311	-0.004209
1.220000	0.000000	0.000000	0.000000	0.000000	0.000000	0.000000	9.821105	194.182755	23.552971	0.253043	-0.002911	0.117170	0.000000	0.000000	0.000000	0.001367	0.260797	-0.004787
1.230000	0.000000	0.000000	0.000000	0.000000	0.000000	0.000000	10.430451	211.042572	24.842522	0.253479	-0.003592	0.115572	0.000000	0.000000	0.000000	0.001425	0.271910	-0.004991
1.240000	0.000000	0.000000	0.000000	0.000000	0.000000	0.000000	10.526313	225.432220	25.244190	0.254145	-0.004050	0.114201	0.000000	0.000000	0.000000	0.001380	0.263272	-0.004833
1.250000	0.000000	0.000000	0.000000	0.000000	0.000000	0.000000	10.283786	237.540268	24.879063	0.254980	-0.004319	0.113074	0.000000	0.000000	0.000000	0.001259	0.240257	-0.004410
1.260000	0.000000	0.000000	0.000000	0.000000	0.000000	0.000000	9.881584	247.617950	23.892004	0.255921	-0.004445	0.112191	0.000000	0.000000	0.000000	0.001101	0.210064	-0.003856
1.270000	0.000000	0.000000	0.000000	0.000000	0.000000	0.000000	9.457323	255.895767	22.443275	0.256911	-0.004472	0.111531	0.000000	0.000000	0.000000	0.000938	0.178955	-0.003285
1.280000	0.000000	0.000000	0.000000	0.000000	0.000000	0.000000	9.092690	262.548492	20.708862	0.257898	-0.004441	0.111042	0.000000	0.000000	0.000000	0.000791	0.150867	-0.002769
1.290000	0.000000	0.000000	0.000000	0.000000	0.000000	0.000000	8.826281	267.700867	18.846277	0.258830	-0.004382	0.110649	0.000000	0.000000	0.000000	0.000677	0.129066	-0.002369
1.300000	0.000000	0.000000	0.000000	0.000000	0.000000	0.000000	8.684278	271.442108	16.951389	0.259654	-0.004317	0.110255	0.000000	0.000000	0.000000	0.000631	0.120413	-0.002210
1.310000	0.000000	0.000000	0.000000	0.000000	0.000000	0.000000	8.702129	273.860321	15.030459	0.260330	-0.004262	0.109757	0.000000	0.000000	0.000000	0.000714	0.136158	-0.002499
1.320000	0.000000	0.000000	0.000000	0.000000	0.000000	0.000000	8.913923	275.105865	13.077675	0.260845	-0.004222	0.109116	0.000000	0.000000	0.000000	0.000958	0.182768	-0.003355
1.330000	0.000000	0.000000	0.000000	0.000000	0.000000	0.000000	9.328459	275.421875	11.175936	0.261221	-0.004199	0.108385	0.000000	0.000000	0.000000	0.001319	0.251608	-0.004618
1.340000	0.000000	0.000000	0.000000	0.000000	0.000000	0.000000	9.932059	275.057281	9.399976	0.261490	-0.004190	0.107627	0.000000	0.000000	0.000000	0.001725	0.329164	-0.006042
1.350000	0.000000	0.000000	0.000000	0.000000	0.000000	0.000000	10.695268	274.236389	7.747968	0.261684	-0.004191	0.106891	0.000000	0.000000	0.000000	0.002126	0.405509	-0.007443
1.360000	0.000000	0.000000	0.000000	0.000000	0.000000	0.000000	11.572848	273.159821	6.170380	0.261830	-0.004197	0.106211	0.000000	0.000000	0.000000	0.002484	0.473836	-0.008698
1.370000	0.000000	0.000000	0.000000	0.000000	0.000000	0.000000	12.510388	271.982178	4.599143	0.261955	-0.004206	0.105598	0.000000	0.000000	0.000000	0.002776	0.529547	-0.009720
1.380000	0.000000	0.000000	0.000000	0.000000	0.000000	0.000000	13.448476	270.808594	2.974780	0.262088	-0.004215	0.105051	0.000000	0.000000	0.000000	0.002988	0.570010	-0.010463
1.390000	0.000000	0.000000	0.000000	0.000000	0.000000	0.000000	14.327661	269.696442	1.270852	0.262249	-0.004226	0.104557	0.000000	0.000000	0.000000	0.003116	0.594509	-0.010913
1.400000	0.000000	0.000000	0.000000	0.000000	0.000000	0.000000	15.090911	268.666718	-0.501724	0.262462	-0.004240	0.104105	0.000000	0.000000	0.000000	0.003161	0.602923	-0.011067
1.410000	0.000000	0.000000	0.000000	0.000000	0.000000	0.000000	15.685518	267.706726	-2.308554	0.262743	-0.004258	0.103679	0.000000	0.000000	0.000000	0.003121	0.595430	-0.010929
1.420000	0.000000	0.000000	0.000000	0.000000	0.000000	0.000000	16.069275	266.795929	-4.113379	0.263102	-0.004284	0.103267	0.000000	0.000000	0.000000	0.003002	0.572711	-0.010512
1.430000	0.000000	0.000000	0.000000	0.000000	0.000000	0.000000	16.218237	265.935181	-5.894047	0.263548	-0.004318	0.102864	0.000000	0.000000	0.000000	0.002813	0.536651	-0.009851
1.440000	0.000000	0.000000	0.000000	0.000000	0.000000	0.000000	16.130869	265.138824	-7.657229	0.264082	-0.004356	0.102470	0.000000	0.000000	0.000000	0.002570	0.490324	-0.009000
1.450000	0.000000	0.000000	0.000000	0.000000	0.000000	0.000000	15.826855	264.422516	-9.428391	0.264691	-0.004394	0.102087	0.000000	0.000000	0.000000	0.002293	0.437363	-0.008028
1.460000	0.000000	0.000000	0.000000	0.000000	0.000000	0.000000	15.340386	263.800354	-11.237849	0.265357	-0.004425	0.101724	0.000000	0.000000	0.000000	0.001998	0.381236	-0.006998
1.470000	0.000000	0.000000	0.000000	0.000000	0.000000	0.000000	14.717998	263.265808	-13.110391	0.266063	-0.004446	0.101396	0.000000	0.000000	0.000000	0.001706	0.325484	-0.005974
1.480000	0.000000	0.000000	0.000000	0.000000	0.000000	0.000000	14.012333	262.765137	-15.058414	0.266793	-0.004454	0.101115	0.000000	0.000000	0.000000	0.001432	0.273229	-0.005015
1.490000	0.000000	0.000000	0.000000	0.000000	0.000000	0.000000	13.274843	262.205597	-17.072300	0.267529	-0.004450	0.100892	0.000000	0.000000	0.000000	0.001189	0.226727	-0.004162
1.500000	0.000000	0.000000	0.000000	0.000000	0.000000	0.000000	12.552377	261.469208	-19.128931	0.268259	-0.004436	0.100733	0.000000	0.000000	0.000000	0.000982	0.187239	-0.003437
1.510000	0.000000	0.000000	0.000000	0.000000	0.000000	0.000000	11.889225	260.435089	-21.202274	0.268976	-0.004415	0.100642	0.000000	0.000000	0.000000	0.000815	0.155509	-0.002854
1.520000	0.000000	0.000000	0.000000	0.000000	0.000000	0.000000	11.323948	258.990875	-23.277563	0.269667	-0.004392	0.100614	0.000000	0.000000	0.000000	0.000692	0.131961	-0.002422
1.530000	0.000000	0.000000	0.000000	0.000000	0.000000	0.000000	10.883622	257.034698	-25.360346	0.270324	-0.004366	0.100639	0.000000	0.000000	0.000000	0.000608	0.116007	-0.002129
1.540000	0.000000	0.000000	0.000000	0.000000	0.000000	0.000000	10.579051	254.471252	-27.468767	0.270932	-0.004334	0.100705	0.000000	0.000000	0.000000	0.000556	0.106139	-0.001948
1.550000	0.000000	0.000000	0.000000	0.000000	0.000000	0.000000	10.401866	251.207642	-29.615133	0.271474	-0.004293	0.100784	0.000000	0.000000	0.000000	0.000524	0.099878	-0.001833
1.560000	0.000000	0.000000	0.000000	0.000000	0.000000	0.000000	10.324473	247.146255	-31.791819	0.271934	-0.004237	0.100848	0.000000	0.000000	0.000000	0.000500	0.095373	-0.001751
1.570000	0.000000	0.000000	0.000000	0.000000	0.000000	0.000000	10.305188	242.174072	-33.964539	0.272300	-0.004158	0.100859	0.000000	0.000000	0.000000	0.000482	0.091861	-0.001686
1.580000	0.000000	0.000000	0.000000	0.000000	0.000000	0.000000	10.290880	236.154007	-36.071877	0.272577	-0.004046	0.100784	0.000000	0.000000	0.000000	0.000470	0.089609	-0.001645
1.590000	0.000000	0.000000	0.000000	0.000000	0.000000	0.000000	10.221561	228.919586	-38.026554	0.272788	-0.003889	0.100590	0.000000	0.000000	0.000000	0.000469	0.089560	-0.001644
1.600000	0.000000	0.000000	0.000000	0.000000	0.000000	0.000000	10.032516	220.275925	-39.718510	0.272976	-0.003680	0.100260	0.000000	0.000000	0.000000	0.000485	0.092485	-0.001698
1.610000	0.000000	0.000000	0.000000	0.000000	0.000000	0.000000	9.658147	210.007843	-41.022621	0.273190	-0.003419	0.099790	0.000000	0.000000	0.000000	0.000519	0.098950	-0.001816
1.620000	0.000000	0.000000	0.000000	0.000000	0.000000	0.000000	9.043303	197.915741	-41.802685	0.273471	-0.003114	0.099210	0.000000	0.000000	0.000000	0.000568	0.108322	-0.001988
1.630000	-2.978227	27.520885	11.814886	0.397421	-0.004166	-0.303009	8.152335	183.858902	-41.921028	0.273856	-0.002781	0.098588	-0.001939	0.170497	0.003466	0.000621	0.118424	-0.002174
1.640000	-4.351876	46.317291	15.840499	0.395911	-0.004688	-0.305805	6.981055	167.794891	-41.246925	0.274371	-0.002440	0.098034	-0.002688	0.236395	0.004805	0.000663	0.126529	-0.002323
1.650000	-5.827291	69.903511	19.946945	0.394710	-0.005193	-0.308338	5.564752	149.827179	-39.661896	0.275024	-0.002112	0.097698	-0.003704	0.325781	0.006622	0.000685	0.130627	-0.002398
1.660000	-7.303981	97.568481	24.318993	0.393723	-0.005542	-0.311944	3.984411	130.281464	-37.070908	0.275818	-0.001817	0.097779	-0.004923	0.432934	0.008800	0.000675	0.128792	-0.002364
1.670000	-8.798450	128.013382	29.227190	0.392984	-0.005679	-0.317337	2.361005	109.760162	-33.433208	0.276752	-0.001566	0.098486	-0.006184	0.543822	0.011054	0.000630	0.120201	-0.002206
